  0
SECTION
  2
HEADER
  9
$ANGBASE
  50
0.0
  9
$ANGDIR
  70
1
  9
$MEASUREMENT
  70
1
  0
ENDSEC
  0
SECTION
  2
TABLES
  0
TABLE
  2
LTYPE
  70
4
  0
LTYPE
  5
40F
  2
CONTINUOUS
  70
0
  3
Solid line
  72
65
  73
0
  40
0.0
  0
LTYPE
  5
410
  2
DASHDOT
 70
0
  3
Dash Dot ____ _ ____ _
 72
65
 73
4
 40
2.0
 49
1.25
 49
-0.25
 49
0.25
 49
-0.25
  0
LTYPE
  5
411
  2
DASHED
 70
0
  3
Dashed __ __ __ __ __
 72
65
 73
2
 40
0.75
 49
0.5
 49
-0.25
  0
LTYPE
  5
43B
  2
DOTTED
 70
0
  3
Dotted .  .  .  .
 72
65
 73
2
 40
0.2
 49
0.0
 49
-0.2
  0
ENDTAB
  0
TABLE
  2
STYLE
  70
4
  0
STYLE
  2
KICAD
  70
0
  40
0
  41
1
  42
1
  50
0
  71
0
  3
isocp.shx
  0
STYLE
  2
KICADB
  70
0
  40
0
  41
1
  42
1
  50
0
  71
0
  3
isocp.shx
  0
STYLE
  2
KICADI
  70
0
  40
0
  41
1
  42
1
  50
15
  71
0
  3
isocp.shx
  0
STYLE
  2
KICADBI
  70
0
  40
0
  41
1
  42
1
  50
15
  71
0
  3
isocp.shx
  0
ENDTAB
  0
TABLE
  2
LAYER
  70
1
  0
LAYER
  2
BLACK
  70
0
  62
7
  6
CONTINUOUS
  0
ENDTAB
  0
ENDSEC
  0
SECTION
  2
ENTITIES
0
LINE
8
BLACK
6
CONTINUOUS
10
200.2999999999999829
20
-49.125
11
200.517029999999977
21
-49.1405219999999971
0
LINE
8
BLACK
6
CONTINUOUS
10
200.517029999999977
20
-49.1405219999999971
11
200.7296419999999841
21
-49.1867729999999952
0
LINE
8
BLACK
6
CONTINUOUS
10
200.7296419999999841
20
-49.1867729999999952
11
200.9335079999999891
21
-49.2628109999999992
0
LINE
8
BLACK
6
CONTINUOUS
10
200.9335079999999891
20
-49.2628109999999992
11
201.1244769999999846
21
-49.3670879999999954
0
LINE
8
BLACK
6
CONTINUOUS
10
201.1244769999999846
20
-49.3670879999999954
11
201.2986630000000048
21
-49.497481999999998
0
LINE
8
BLACK
6
CONTINUOUS
10
201.2986630000000048
20
-49.497481999999998
11
201.4525179999999978
21
-49.6513369999999981
0
LINE
8
BLACK
6
CONTINUOUS
10
201.4525179999999978
20
-49.6513369999999981
11
201.5829119999999932
21
-49.8255229999999969
0
LINE
8
BLACK
6
CONTINUOUS
10
201.5829119999999932
20
-49.8255229999999969
11
201.6871889999999894
21
-50.0164919999999995
0
LINE
8
BLACK
6
CONTINUOUS
10
201.6871889999999894
20
-50.0164919999999995
11
201.7632270000000005
21
-50.2203579999999974
0
LINE
8
BLACK
6
CONTINUOUS
10
201.7632270000000005
20
-50.2203579999999974
11
201.8094779999999844
21
-50.4329699999999974
0
LINE
8
BLACK
6
CONTINUOUS
10
201.8094779999999844
20
-50.4329699999999974
11
201.8249999999999886
21
-50.6499999999999986
0
LINE
8
BLACK
6
CONTINUOUS
10
201.8249999999999886
20
-50.6499999999999986
11
201.8249999999999886
21
-99.1499999999999915
0
LINE
8
BLACK
6
CONTINUOUS
10
201.8249999999999886
20
-99.1499999999999915
11
201.8094779999999844
21
-99.3670299999999997
0
LINE
8
BLACK
6
CONTINUOUS
10
201.8094779999999844
20
-99.3670299999999997
11
201.7632270000000005
21
-99.5796419999999927
0
LINE
8
BLACK
6
CONTINUOUS
10
201.7632270000000005
20
-99.5796419999999927
11
201.6871889999999894
21
-99.7835079999999977
0
LINE
8
BLACK
6
CONTINUOUS
10
201.6871889999999894
20
-99.7835079999999977
11
201.5829119999999932
21
-99.9744769999999932
0
LINE
8
BLACK
6
CONTINUOUS
10
201.5829119999999932
20
-99.9744769999999932
11
201.4525179999999978
21
-100.1486629999999991
0
LINE
8
BLACK
6
CONTINUOUS
10
201.4525179999999978
20
-100.1486629999999991
11
201.2986630000000048
21
-100.3025179999999921
0
LINE
8
BLACK
6
CONTINUOUS
10
201.2986630000000048
20
-100.3025179999999921
11
201.1244769999999846
21
-100.4329120000000017
0
LINE
8
BLACK
6
CONTINUOUS
10
201.1244769999999846
20
-100.4329120000000017
11
200.9335079999999891
21
-100.5371889999999979
0
LINE
8
BLACK
6
CONTINUOUS
10
200.9335079999999891
20
-100.5371889999999979
11
200.7296419999999841
21
-100.6132269999999949
0
LINE
8
BLACK
6
CONTINUOUS
10
200.7296419999999841
20
-100.6132269999999949
11
200.517029999999977
21
-100.6594779999999929
0
LINE
8
BLACK
6
CONTINUOUS
10
200.517029999999977
20
-100.6594779999999929
11
200.2999999999999829
21
-100.6749999999999972
0
LINE
8
BLACK
6
CONTINUOUS
10
200.2999999999999829
20
-100.6749999999999972
11
105.2999999999999972
21
-100.6749999999999972
0
LINE
8
BLACK
6
CONTINUOUS
10
105.2999999999999972
20
-100.6749999999999972
11
105.0829699999999889
21
-100.6594779999999929
0
LINE
8
BLACK
6
CONTINUOUS
10
105.0829699999999889
20
-100.6594779999999929
11
104.870357999999996
21
-100.6132269999999949
0
LINE
8
BLACK
6
CONTINUOUS
10
104.870357999999996
20
-100.6132269999999949
11
104.666491999999991
21
-100.5371889999999979
0
LINE
8
BLACK
6
CONTINUOUS
10
104.666491999999991
20
-100.5371889999999979
11
104.4755229999999955
21
-100.4329120000000017
0
LINE
8
BLACK
6
CONTINUOUS
10
104.4755229999999955
20
-100.4329120000000017
11
104.3013369999999895
21
-100.3025179999999921
0
LINE
8
BLACK
6
CONTINUOUS
10
104.3013369999999895
20
-100.3025179999999921
11
104.1474819999999966
21
-100.1486629999999991
0
LINE
8
BLACK
6
CONTINUOUS
10
104.1474819999999966
20
-100.1486629999999991
11
104.0170880000000011
21
-99.9744769999999932
0
LINE
8
BLACK
6
CONTINUOUS
10
104.0170880000000011
20
-99.9744769999999932
11
103.9128109999999907
21
-99.7835079999999977
0
LINE
8
BLACK
6
CONTINUOUS
10
103.9128109999999907
20
-99.7835079999999977
11
103.8367729999999938
21
-99.5796419999999927
0
LINE
8
BLACK
6
CONTINUOUS
10
103.8367729999999938
20
-99.5796419999999927
11
103.7905219999999957
21
-99.3670299999999997
0
LINE
8
BLACK
6
CONTINUOUS
10
103.7905219999999957
20
-99.3670299999999997
11
103.7749999999999915
21
-99.1499999999999915
0
LINE
8
BLACK
6
CONTINUOUS
10
103.7749999999999915
20
-99.1499999999999915
11
103.7749999999999915
21
-50.6499999999999986
0
LINE
8
BLACK
6
CONTINUOUS
10
103.7749999999999915
20
-50.6499999999999986
11
103.7905219999999957
21
-50.4329699999999974
0
LINE
8
BLACK
6
CONTINUOUS
10
103.7905219999999957
20
-50.4329699999999974
11
103.8367729999999938
21
-50.2203579999999974
0
LINE
8
BLACK
6
CONTINUOUS
10
103.8367729999999938
20
-50.2203579999999974
11
103.9128109999999907
21
-50.0164919999999995
0
LINE
8
BLACK
6
CONTINUOUS
10
103.9128109999999907
20
-50.0164919999999995
11
104.0170880000000011
21
-49.8255229999999969
0
LINE
8
BLACK
6
CONTINUOUS
10
104.0170880000000011
20
-49.8255229999999969
11
104.1474819999999966
21
-49.6513369999999981
0
LINE
8
BLACK
6
CONTINUOUS
10
104.1474819999999966
20
-49.6513369999999981
11
104.3013369999999895
21
-49.497481999999998
0
LINE
8
BLACK
6
CONTINUOUS
10
104.3013369999999895
20
-49.497481999999998
11
104.4755229999999955
21
-49.3670879999999954
0
LINE
8
BLACK
6
CONTINUOUS
10
104.4755229999999955
20
-49.3670879999999954
11
104.666491999999991
21
-49.2628109999999992
0
LINE
8
BLACK
6
CONTINUOUS
10
104.666491999999991
20
-49.2628109999999992
11
104.870357999999996
21
-49.1867729999999952
0
LINE
8
BLACK
6
CONTINUOUS
10
104.870357999999996
20
-49.1867729999999952
11
105.0829699999999889
21
-49.1405219999999971
0
LINE
8
BLACK
6
CONTINUOUS
10
105.0829699999999889
20
-49.1405219999999971
11
105.2999999999999972
21
-49.125
0
LINE
8
BLACK
6
CONTINUOUS
10
105.2999999999999972
20
-49.125
11
200.2999999999999829
21
-49.125
0
LINE
8
BLACK
6
CONTINUOUS
10
105.2999999999999972
20
-49.1749999999999972
11
105.1945059999999899
21
-49.1749999999999972
0
LINE
8
BLACK
6
CONTINUOUS
10
105.1945059999999899
20
-49.1749999999999972
11
104.9856649999999973
21
-49.2050259999999966
0
LINE
8
BLACK
6
CONTINUOUS
10
104.9856649999999973
20
-49.2050259999999966
11
104.7832239999999899
21
-49.2644689999999983
0
LINE
8
BLACK
6
CONTINUOUS
10
104.7832239999999899
20
-49.2644689999999983
11
104.5913019999999989
21
-49.3521159999999952
0
LINE
8
BLACK
6
CONTINUOUS
10
104.5913019999999989
20
-49.3521159999999952
11
104.4138069999999914
21
-49.4661849999999959
0
LINE
8
BLACK
6
CONTINUOUS
10
104.4138069999999914
20
-49.4661849999999959
11
104.2543529999999947
21
-49.6043529999999961
0
LINE
8
BLACK
6
CONTINUOUS
10
104.2543529999999947
20
-49.6043529999999961
11
104.1161850000000015
21
-49.7638069999999999
0
LINE
8
BLACK
6
CONTINUOUS
10
104.1161850000000015
20
-49.7638069999999999
11
104.0021160000000009
21
-49.9413020000000003
0
LINE
8
BLACK
6
CONTINUOUS
10
104.0021160000000009
20
-49.9413020000000003
11
103.9144689999999969
21
-50.1332239999999985
0
LINE
8
BLACK
6
CONTINUOUS
10
103.9144689999999969
20
-50.1332239999999985
11
103.8550259999999952
21
-50.3356649999999988
0
LINE
8
BLACK
6
CONTINUOUS
10
103.8550259999999952
20
-50.3356649999999988
11
103.8249999999999886
21
-50.5445059999999984
0
LINE
8
BLACK
6
CONTINUOUS
10
103.8249999999999886
20
-50.5445059999999984
11
103.8249999999999886
21
-50.6499999999999986
0
LINE
8
BLACK
6
CONTINUOUS
10
103.8249999999999886
20
-50.6499999999999986
11
103.8249999999999886
21
-99.1499999999999915
0
LINE
8
BLACK
6
CONTINUOUS
10
103.8249999999999886
20
-99.1499999999999915
11
103.8249999999999886
21
-99.2554939999999988
0
LINE
8
BLACK
6
CONTINUOUS
10
103.8249999999999886
20
-99.2554939999999988
11
103.8550259999999952
21
-99.4643349999999913
0
LINE
8
BLACK
6
CONTINUOUS
10
103.8550259999999952
20
-99.4643349999999913
11
103.9144689999999969
21
-99.6667759999999987
0
LINE
8
BLACK
6
CONTINUOUS
10
103.9144689999999969
20
-99.6667759999999987
11
104.0021160000000009
21
-99.8586979999999897
0
LINE
8
BLACK
6
CONTINUOUS
10
104.0021160000000009
20
-99.8586979999999897
11
104.1161850000000015
21
-100.0361929999999973
0
LINE
8
BLACK
6
CONTINUOUS
10
104.1161850000000015
20
-100.0361929999999973
11
104.2543529999999947
21
-100.1956469999999939
0
LINE
8
BLACK
6
CONTINUOUS
10
104.2543529999999947
20
-100.1956469999999939
11
104.4138069999999914
21
-100.3338150000000013
0
LINE
8
BLACK
6
CONTINUOUS
10
104.4138069999999914
20
-100.3338150000000013
11
104.5913019999999989
21
-100.4478840000000019
0
LINE
8
BLACK
6
CONTINUOUS
10
104.5913019999999989
20
-100.4478840000000019
11
104.7832239999999899
21
-100.5355309999999918
0
LINE
8
BLACK
6
CONTINUOUS
10
104.7832239999999899
20
-100.5355309999999918
11
104.9856649999999973
21
-100.5949739999999935
0
LINE
8
BLACK
6
CONTINUOUS
10
104.9856649999999973
20
-100.5949739999999935
11
105.1945059999999899
21
-100.625
0
LINE
8
BLACK
6
CONTINUOUS
10
105.1945059999999899
20
-100.625
11
105.2999999999999972
21
-100.625
0
LINE
8
BLACK
6
CONTINUOUS
10
105.2999999999999972
20
-100.625
11
200.2999999999999829
21
-100.625
0
LINE
8
BLACK
6
CONTINUOUS
10
200.2999999999999829
20
-100.625
11
200.4054940000000045
21
-100.625
0
LINE
8
BLACK
6
CONTINUOUS
10
200.4054940000000045
20
-100.625
11
200.6143349999999828
21
-100.5949739999999935
0
LINE
8
BLACK
6
CONTINUOUS
10
200.6143349999999828
20
-100.5949739999999935
11
200.8167760000000044
21
-100.5355309999999918
0
LINE
8
BLACK
6
CONTINUOUS
10
200.8167760000000044
20
-100.5355309999999918
11
201.0086979999999812
21
-100.4478840000000019
0
LINE
8
BLACK
6
CONTINUOUS
10
201.0086979999999812
20
-100.4478840000000019
11
201.1861930000000029
21
-100.3338150000000013
0
LINE
8
BLACK
6
CONTINUOUS
10
201.1861930000000029
20
-100.3338150000000013
11
201.3456469999999854
21
-100.1956469999999939
0
LINE
8
BLACK
6
CONTINUOUS
10
201.3456469999999854
20
-100.1956469999999939
11
201.4838149999999928
21
-100.0361929999999973
0
LINE
8
BLACK
6
CONTINUOUS
10
201.4838149999999928
20
-100.0361929999999973
11
201.5978839999999934
21
-99.8586979999999897
0
LINE
8
BLACK
6
CONTINUOUS
10
201.5978839999999934
20
-99.8586979999999897
11
201.6855309999999974
21
-99.6667759999999987
0
LINE
8
BLACK
6
CONTINUOUS
10
201.6855309999999974
20
-99.6667759999999987
11
201.7449739999999849
21
-99.4643349999999913
0
LINE
8
BLACK
6
CONTINUOUS
10
201.7449739999999849
20
-99.4643349999999913
11
201.7749999999999773
21
-99.2554939999999988
0
LINE
8
BLACK
6
CONTINUOUS
10
201.7749999999999773
20
-99.2554939999999988
11
201.7749999999999773
21
-99.1499999999999915
0
LINE
8
BLACK
6
CONTINUOUS
10
201.7749999999999773
20
-99.1499999999999915
11
201.7749999999999773
21
-50.6499999999999986
0
LINE
8
BLACK
6
CONTINUOUS
10
201.7749999999999773
20
-50.6499999999999986
11
201.7749999999999773
21
-50.5445059999999984
0
LINE
8
BLACK
6
CONTINUOUS
10
201.7749999999999773
20
-50.5445059999999984
11
201.7449739999999849
21
-50.3356649999999988
0
LINE
8
BLACK
6
CONTINUOUS
10
201.7449739999999849
20
-50.3356649999999988
11
201.6855309999999974
21
-50.1332239999999985
0
LINE
8
BLACK
6
CONTINUOUS
10
201.6855309999999974
20
-50.1332239999999985
11
201.5978839999999934
21
-49.9413020000000003
0
LINE
8
BLACK
6
CONTINUOUS
10
201.5978839999999934
20
-49.9413020000000003
11
201.4838149999999928
21
-49.7638069999999999
0
LINE
8
BLACK
6
CONTINUOUS
10
201.4838149999999928
20
-49.7638069999999999
11
201.3456469999999854
21
-49.6043529999999961
0
LINE
8
BLACK
6
CONTINUOUS
10
201.3456469999999854
20
-49.6043529999999961
11
201.1861930000000029
21
-49.4661849999999959
0
LINE
8
BLACK
6
CONTINUOUS
10
201.1861930000000029
20
-49.4661849999999959
11
201.0086979999999812
21
-49.3521159999999952
0
LINE
8
BLACK
6
CONTINUOUS
10
201.0086979999999812
20
-49.3521159999999952
11
200.8167760000000044
21
-49.2644689999999983
0
LINE
8
BLACK
6
CONTINUOUS
10
200.8167760000000044
20
-49.2644689999999983
11
200.6143349999999828
21
-49.2050259999999966
0
LINE
8
BLACK
6
CONTINUOUS
10
200.6143349999999828
20
-49.2050259999999966
11
200.4054940000000045
21
-49.1749999999999972
0
LINE
8
BLACK
6
CONTINUOUS
10
200.4054940000000045
20
-49.1749999999999972
11
200.2999999999999829
21
-49.1749999999999972
0
LINE
8
BLACK
6
CONTINUOUS
10
200.2999999999999829
20
-49.1749999999999972
11
105.2999999999999972
21
-49.1749999999999972
  0
ENDSEC
  0
EOF
